<svg version="1.1" xmlns="http://www.w3.org/2000/svg"  viewBox="0 0 32 32">
<path d="M29.849 15.429v0l-11.943-11.944c-0.488-0.488-1.162-0.79-1.906-0.79s-1.418 0.302-1.906 0.79l-11.948 11.947c-0.485 0.487-0.785 1.159-0.785 1.901 0 1.447 1.141 2.628 2.572 2.691l0.006 0c0.027 0 0.056 0 0.084 0h0.475v8.788c0.002 1.741 1.413 3.152 3.155 3.154h4.672c0.474 0 0.857-0.384 0.857-0.857v0-6.889c0.001-0.794 0.645-1.438 1.439-1.439h2.756c0.794 0.001 1.438 0.645 1.439 1.439v6.89c0 0.474 0.384 0.857 0.857 0.857v0h4.672c1.741-0.002 3.153-1.413 3.155-3.154v-8.784h0.441c1.489-0 2.695-1.207 2.695-2.696 0-0.743-0.301-1.416-0.788-1.904l0 0z" fill="currentColor"/>
</svg>
