<!-- Generated by IcoMoon.io -->
<svg version="1.1" xmlns="http://www.w3.org/2000/svg" width="29" height="32" viewBox="0 0 29 32">
<path d="M28.054 20.534l-1.572-0.933c-0.773-0.5-1.278-1.358-1.278-2.334s0.505-1.834 1.267-2.327l0.011-0.007 1.572-0.933c0.789-0.446 1.312-1.279 1.312-2.234 0-0.507-0.147-0.979-0.401-1.376l0.006 0.010-1.309-2.267c-0.419-0.798-1.243-1.333-2.191-1.333-0.501 0-0.967 0.149-1.356 0.406l0.009-0.006-1.572 0.933c-0.377 0.224-0.832 0.356-1.317 0.356-1.444 0-2.614-1.171-2.614-2.614 0-0.003 0-0.006 0-0.009v0-1.869c0-0.004 0-0.008 0-0.012 0-1.454-1.17-2.635-2.621-2.652h-2.623c-1.451 0.017-2.621 1.198-2.621 2.652 0 0.005 0 0.010 0 0.015v-0.001 1.732c0 0.003 0 0.007 0 0.010 0 1.444-1.171 2.614-2.614 2.614-0.485 0-0.939-0.132-1.328-0.362l0.012 0.007-1.572-0.8c-0.377-0.238-0.836-0.379-1.328-0.379-0.948 0-1.774 0.524-2.204 1.299l-0.007 0.013-1.312 2.267c-0.204 0.39-0.324 0.851-0.324 1.34 0 0.986 0.486 1.859 1.232 2.392l0.009 0.006 1.572 0.933c0.771 0.473 1.277 1.31 1.277 2.266s-0.506 1.794-1.266 2.26l-0.012 0.007-1.572 0.933c-0.789 0.446-1.312 1.279-1.312 2.234 0 0.507 0.147 0.979 0.401 1.376l-0.006-0.010 1.311 2.263c0.419 0.798 1.243 1.333 2.191 1.333 0.501 0 0.967-0.149 1.356-0.406l-0.009 0.006 1.573-0.8c0.377-0.224 0.832-0.356 1.317-0.356 1.444 0 2.614 1.171 2.614 2.614 0 0.003 0 0.006 0 0.009v-0 1.869c-0 0.004-0 0.009-0 0.014 0 1.454 1.17 2.634 2.619 2.652h2.623c1.451-0.017 2.621-1.198 2.621-2.652 0-0.005 0-0.010-0-0.015v0.001-1.74c0-0 0-0.001 0-0.002 0-1.444 1.171-2.614 2.614-2.614 0.484 0 0.936 0.131 1.325 0.36l-0.012-0.007 1.572 0.933c0.377 0.238 0.836 0.379 1.328 0.379 0.948 0 1.774-0.524 2.204-1.299l0.007-0.013 1.311-2.267c0.21-0.405 0.333-0.884 0.333-1.392 0-1.010-0.487-1.907-1.238-2.468l-0.008-0.006zM14.687 22.662c-0.027 0-0.060 0.001-0.092 0.001-2.946 0-5.334-2.388-5.334-5.334s2.388-5.334 5.334-5.334c2.946 0 5.334 2.388 5.334 5.334 0 0 0 0 0 0v0c0 0.009 0 0.019 0 0.030 0 2.907-2.34 5.269-5.239 5.303l-0.003 0z"></path>
</svg>
