<svg viewBox="0 0 24 24" fill="none" xmlns="http://www.w3.org/2000/svg">
    <path
        fill-rule="evenodd"
        clip-rule="evenodd"
        d="M12.1035 2.01551C11.7705 1.87049 11.3939 1.8617 11.0545 1.9911C10.7151 2.12025 10.4394 2.37831 10.2872 2.70814L7.20742 9.45007H4C3.73478 9.45007 3.47754 9.55543 3.29 9.74297C3.10246 9.9305 3 10.1849 3 10.4501V19.95C3 20.2152 3.10246 20.4725 3.29 20.66C3.47754 20.8476 3.73478 20.95 4 20.95H7.5C7.70534 20.9504 7.90579 20.8878 8.07402 20.77C8.17496 20.6994 8.26134 20.6102 8.32941 20.5085C8.57156 20.6813 8.81885 20.8332 9.06244 20.966C10.058 21.5087 11.0994 21.7921 11.787 21.8903C11.8339 21.8971 11.8812 21.9003 11.9285 21.9003H15.9285C16.5889 21.9003 17.7168 21.5878 18.7822 20.807C19.8868 19.9972 20.949 18.6679 21.4047 16.6173C22.2758 12.6974 20.7241 10.5416 19.2999 9.97181C19.2819 9.96468 19.2637 9.95701 19.2454 9.94926L19.2363 9.94545L19.2344 9.94465C19.1357 9.90338 19.0325 9.86024 18.9285 9.86024H17.9587C17.9315 9.8556 17.9072 9.85316 17.8864 9.85316H13.905V9.41151L14.3419 8.57679L14.3448 8.5702C14.3923 8.46498 14.4362 8.33851 14.4763 8.19984C14.5425 7.97035 14.5983 7.70716 14.6425 7.45082C14.7142 7.03456 14.7602 6.60804 14.7686 6.32045C14.7854 5.74183 14.6874 5.1659 14.4804 4.62538C14.2783 4.09803 13.9185 3.43153 13.5114 3.00404C13.1123 2.58509 12.6341 2.24916 12.1035 2.01551ZM8.45001 17.7334C8.76123 18.3414 9.32839 18.8332 10.0195 19.2098C10.7482 19.6071 11.5188 19.8224 12.0038 19.9003H15.9285C16.1014 19.9003 16.8235 19.7628 17.5998 19.194C18.3369 18.6535 19.108 17.7328 19.4523 16.1835C20.0942 13.2946 19.0991 12.1417 18.687 11.8532H12.8015L11.905 10.9567V9.14003L12.0068 8.88807L12.5222 7.7472C12.6357 7.49549 12.7184 7.07606 12.7469 6.63099C12.7754 6.18568 12.7468 5.75917 12.666 5.49549C12.5202 5.01942 12.2003 4.4994 11.8186 4.16859L8.45001 11.5431V17.7334ZM6.5 11.4501H5V18.95H6.5V18.2719V12.4779V11.4501Z"
        fill="currentColor"
    />
</svg>
