<svg viewBox="0 0 24 24" fill="none" xmlns="http://www.w3.org/2000/svg">
    <g clip-path="url(#clip0_103_1582)">
        <path
            fill-rule="evenodd"
            clip-rule="evenodd"
            d="M2 12C2 17.523 6.477 22 12 22C17.523 22 22 17.523 22 12C22 6.477 17.523 2 12 2C6.477 2 2 6.477 2 12Z"
            fill="white"
        />
        <path
            fill-rule="evenodd"
            clip-rule="evenodd"
            d="M2 12C2 17.523 6.477 22 12 22C17.523 22 22 17.523 22 12C22 6.477 17.523 2 12 2C6.477 2 2 6.477 2 12ZM8.48125 10.4395L11.074 13.0333L15.5188 8.5885L17 10.0697L11.074 15.9958L7 11.9218L8.48125 10.4395Z"
            fill="currentColor"
        />
    </g>
    <defs>
        <clipPath id="clip0_103_1582">
            <rect width="24" height="24" fill="white" />
        </clipPath>
    </defs>
</svg>
