<svg viewBox="0 0 24 24" fill="none" xmlns="http://www.w3.org/2000/svg">
    <g clip-path="url(#clip0_103_1557)">
        <path
            d="M1.67285 22.3885L22.3238 4.09801"
            stroke="currentColor"
            stroke-width="2"
        />
        <path
            fill-rule="evenodd"
            clip-rule="evenodd"
            d="M8.14414 20H22V18H21V11.031C21 10.2783 20.9082 9.54709 20.7353 8.84806L18.973 10.4089C18.9909 10.6139 19 10.8214 19 11.031V18H10.4023L8.14414 20ZM5.88179 20H2V18H3V11.031C3 6.043 7.03 2 12 2C15.6498 2 18.7927 4.18036 20.2048 7.31414L18.6141 8.72302C17.6633 5.97362 15.0611 4 12 4C8.134 4 5 7.148 5 11.031V18H8.1399L5.88179 20ZM13.7678 22.7678C14.2366 22.2989 14.5 21.663 14.5 21H9.5C9.5 21.663 9.76339 22.2989 10.2322 22.7678C10.7011 23.2366 11.337 23.5 12 23.5C12.663 23.5 13.2989 23.2366 13.7678 22.7678Z"
            fill="currentColor"
        />
    </g>
    <defs>
        <clipPath id="clip0_103_1557">
            <rect width="24" height="24" fill="white" />
        </clipPath>
    </defs>
</svg>
