<svg viewBox="0 0 24 24" fill="none" xmlns="http://www.w3.org/2000/svg">
    <path
        fill-rule="evenodd"
        clip-rule="evenodd"
        d="M2 12C2 17.523 6.477 22 12 22C17.523 22 22 17.523 22 12C22 6.477 17.523 2 12 2C6.477 2 2 6.477 2 12ZM10.4196 8.3482C10.4919 8.35174 10.5618 8.37482 10.622 8.41498L15.501 11.667C15.5559 11.7035 15.6009 11.753 15.632 11.8111C15.6631 11.8692 15.6794 11.9341 15.6794 12C15.6794 12.0659 15.6631 12.1308 15.632 12.1889C15.6009 12.247 15.5559 12.2965 15.501 12.333L10.622 15.585C10.5618 15.6251 10.4919 15.6482 10.4196 15.6518C10.3473 15.6553 10.2755 15.6392 10.2116 15.6051C10.1478 15.571 10.0944 15.5203 10.0572 15.4583C10.0199 15.3963 10.0001 15.3253 10 15.253V8.74698C10.0001 8.67463 10.0199 8.60367 10.0572 8.54166C10.0944 8.47965 10.1478 8.42891 10.2116 8.39484C10.2755 8.36077 10.3473 8.34465 10.4196 8.3482Z"
        fill="currentColor"
    />
</svg>
