<svg viewBox="0 0 24 24" fill="none" xmlns="http://www.w3.org/2000/svg">
    <path
        d="M11.95 18C11.25 18 10.69 17.44 10.69 16.74C10.69 16.03 11.25 15.49 11.95 15.49C12.66 15.49 13.2 16.03 13.2 16.74C13.19 17.43 12.66 18 11.95 18ZM14.96 10.6C14.2 11.71 13.48 12.06 13.09 12.77C12.93 13.06 12.87 13.25 12.87 14.18H11.05C11.05 13.69 10.97 12.89 11.36 12.2C11.85 11.33 12.78 10.81 13.32 10.04C13.89 9.23 13.57 7.71 11.95 7.71C10.89 7.71 10.37 8.51 10.15 9.19L8.5 8.49C8.95 7.15 10.16 6 11.93 6C13.41 6 14.42 6.67 14.94 7.52C15.38 8.24 15.64 9.59 14.96 10.6Z"
        fill="currentColor"
    />
    <path
        d="M12 20C14.1217 20 16.1566 19.1571 17.6569 17.6569C19.1571 16.1566 20 14.1217 20 12C20 9.87827 19.1571 7.84344 17.6569 6.34315C16.1566 4.84285 14.1217 4 12 4C9.87827 4 7.84344 4.84285 6.34315 6.34315C4.84285 7.84344 4 9.87827 4 12C4 14.1217 4.84285 16.1566 6.34315 17.6569C7.84344 19.1571 9.87827 20 12 20ZM12 22C6.477 22 2 17.523 2 12C2 6.477 6.477 2 12 2C17.523 2 22 6.477 22 12C22 17.523 17.523 22 12 22Z"
        fill="currentColor"
    />
</svg>
