<svg viewBox="0 0 24 24" fill="none" xmlns="http://www.w3.org/2000/svg">
    <mask
        id="mask0_103_1606"
        style="mask-type: alpha"
        maskUnits="userSpaceOnUse"
        x="2"
        y="0"
        width="20"
        height="23"
    >
        <path d="M2 0.599976H22V22.6H2V0.599976Z" fill="currentColor" />
    </mask>
    <g mask="url(#mask0_103_1606)">
        <path
            fill-rule="evenodd"
            clip-rule="evenodd"
            d="M14.4746 10.0482L12.6521 6.89159C12.6105 6.8196 12.5714 6.7458 12.5355 6.67101C14.6421 6.92993 16.606 8.1401 17.749 10.1198C19.682 13.4678 18.5348 17.749 15.1868 19.6819C11.8388 21.6149 7.55762 20.4678 5.62462 17.1198C4.11319 14.5019 4.4849 11.3135 6.31945 9.1233L5.27009 7.30575C2.49966 10.118 1.82286 14.5349 3.89257 18.1198C6.37785 22.4244 11.8822 23.8993 16.1868 21.414C20.4914 18.9287 21.9663 13.4244 19.481 9.11977C18.1507 6.81563 15.9554 5.32225 13.5421 4.813L16.3047 3.21805L15.3047 1.48599L9.24251 4.98599L12.7425 11.0482L14.4746 10.0482Z"
            fill="currentColor"
        />
    </g>
</svg>
