<svg viewBox="0 0 24 24" fill="none" xmlns="http://www.w3.org/2000/svg">
    <path
        d="M8.24219 4.99951L8.24219 19.9995L6.24219 19.9995L6.24219 4.99951L8.24219 4.99951Z"
        fill="currentColor"
    />
    <path
        d="M7.25 3.00049L12.1997 7.95024L10.7855 9.36445L5.83579 4.4147L7.25 3.00049Z"
        fill="currentColor"
    />
    <path
        d="M8.66431 4.41553L3.71456 9.36527L2.30035 7.95106L7.25009 3.00131L8.66431 4.41553Z"
        fill="currentColor"
    />
    <path
        d="M17.7419 3.99902L17.7419 18.999L15.7419 18.999L15.7419 3.99902L17.7419 3.99902Z"
        fill="currentColor"
    />
    <path
        d="M16.7527 21.021L11.8029 16.0712L13.2172 14.657L18.1669 19.6068L16.7527 21.021Z"
        fill="currentColor"
    />
    <path
        d="M15.3384 19.606L20.2881 14.6562L21.7023 16.0704L16.7526 21.0202L15.3384 19.606Z"
        fill="currentColor"
    />
</svg>
