<svg viewBox="0 0 24 24" fill="none" xmlns="http://www.w3.org/2000/svg">
    <path
        d="M16.7332 12.5717C16.742 11.8819 16.9252 11.2055 17.2658 10.6055C17.6063 10.0055 18.0932 9.50142 18.681 9.14021C18.3075 8.60686 17.8149 8.16792 17.2421 7.85825C16.6694 7.54858 16.0323 7.37671 15.3815 7.35628C13.9939 7.21044 12.6486 8.18695 11.9416 8.18695C11.2346 8.18695 10.1312 7.37107 8.95814 7.39538C8.19925 7.41952 7.45957 7.63998 6.81129 8.03525C6.163 8.43051 5.62826 8.98709 5.25924 9.65066C3.66025 12.4185 4.85341 16.4852 6.3837 18.7235C7.1499 19.8184 8.04504 21.0433 9.21706 20.9989C10.3637 20.9513 10.7917 20.2686 12.1762 20.2686C13.5606 20.2686 13.9495 20.9989 15.1448 20.9725C16.376 20.9513 17.1528 19.8713 17.8926 18.7658C18.4428 17.9854 18.8662 17.123 19.147 16.2104C18.4317 15.9081 17.8213 15.4018 17.3921 14.7546C16.9628 14.1075 16.7336 13.3483 16.7332 12.5717Z"
        fill="currentColor"
    />
    <path
        d="M14.4757 5.88514C15.1469 5.08013 15.4775 4.04503 15.3972 3C14.3721 3.10848 13.4255 3.59898 12.7457 4.37388C12.4134 4.75221 12.1589 5.19232 11.9968 5.66906C11.8346 6.14579 11.7681 6.64981 11.8009 7.15228C12.3135 7.15729 12.8207 7.04584 13.284 6.82634C13.7474 6.60685 14.1548 6.28503 14.4757 5.88514Z"
        fill="currentColor"
    />
</svg>
