<svg viewBox="0 0 16 16" fill="#ECEFF1" xmlns="http://www.w3.org/2000/svg">
<g id="chevron_left">
<path id="left"  d="M7.19119 7.99115L7.18236 7.99999L7.19119 8.00883L9.79119 10.6088C9.91084 10.7285 9.97087 10.8807 9.97087 11.0667C9.97087 11.2526 9.91084 11.4048 9.79119 11.5245C9.67155 11.6441 9.51928 11.7042 9.33337 11.7042C9.14745 11.7042 8.99519 11.6441 8.87554 11.5245L5.80887 8.45782C5.74333 8.39228 5.69721 8.32159 5.67014 8.24579C5.64288 8.16946 5.6292 8.08756 5.6292 7.99999C5.6292 7.91243 5.64288 7.83053 5.67014 7.7542C5.69721 7.67839 5.74333 7.60771 5.80887 7.54216L8.87554 4.4755C8.99519 4.35585 9.14745 4.29583 9.33337 4.29583C9.51928 4.29583 9.67155 4.35585 9.79119 4.4755C9.91084 4.59515 9.97087 4.74741 9.97087 4.93333C9.97087 5.11924 9.91084 5.2715 9.79119 5.39115L7.19119 7.99115Z" fill="currentColor" stroke="currentColor" stroke-width="0.025"/>
</g>
</svg>
