<svg version="1.1" xmlns="http://www.w3.org/2000/svg" viewBox="0 0 32 33">
<path d="M21.188 2.196c-1.555-0.546-3.348-0.862-5.215-0.862-0.197 0-0.394 0.004-0.59 0.011l0.028-0.001c-8.565 0.258-15.411 7.263-15.411 15.867 0 0.189 0.003 0.377 0.010 0.564l-0.001-0.027c0.042 1.904 0.433 3.704 1.11 5.357l-0.036-0.1c0.589 1.502 1.35 2.799 2.28 3.953l-0.022-0.028-1.336 3.147c-0.124 0.275-0.197 0.595-0.197 0.933 0 0.968 0.596 1.797 1.44 2.14l0.015 0.006c0.27 0.118 0.584 0.186 0.914 0.186 0.148 0 0.292-0.014 0.433-0.040l-0.014 0.002 6.11-1.074c1.561 0.563 3.363 0.888 5.24 0.888 8.784 0 15.905-7.121 15.905-15.905 0-6.906-4.402-12.785-10.553-14.982l-0.111-0.035zM9.483 19.969c-1.347-0.003-2.439-1.096-2.439-2.444 0-1.35 1.094-2.444 2.444-2.444s2.444 1.094 2.444 2.444c0 0.001 0 0.002 0 0.003v-0c-0.001 1.348-1.094 2.441-2.442 2.441-0.003 0-0.005 0-0.008 0h0zM15.888 19.969c-1.347-0.003-2.439-1.096-2.439-2.444 0-1.35 1.094-2.444 2.444-2.444s2.444 1.094 2.444 2.444c0 0.001 0 0.002 0 0.003v-0c-0.001 1.348-1.094 2.441-2.442 2.441-0.001 0-0.002 0-0.002 0h0zM22.293 19.969c-1.347-0.003-2.439-1.096-2.439-2.444 0-1.35 1.094-2.444 2.444-2.444s2.444 1.094 2.444 2.444c0 0.001 0 0.002 0 0.003v-0c-0.001 1.348-1.094 2.441-2.442 2.441-0.001 0-0.002 0-0.002 0h0z" fill="currentColor" />
</svg>
