<svg viewBox="0 0 24 24" fill="none" xmlns="http://www.w3.org/2000/svg">
<path fill-rule="evenodd" clip-rule="evenodd" d="M11.2934 3.29303C11.4809 3.10556 11.7352 3.00024 12.0004 3.00024C12.2656 3.00024 12.5199 3.10556 12.7074 3.29303L18.7074 9.29303L20.7074 11.293C20.8896 11.4816 20.9904 11.7342 20.9881 11.9964C20.9858 12.2586 20.8806 12.5094 20.6952 12.6948C20.5098 12.8803 20.259 12.9854 19.9968 12.9877C19.7346 12.99 19.482 12.8892 19.2934 12.707L19.0004 12.414V19C19.0004 19.5305 18.7897 20.0392 18.4146 20.4142C18.0395 20.7893 17.5308 21 17.0004 21H14.0004C13.7352 21 13.4808 20.8947 13.2933 20.7071C13.1058 20.5196 13.0004 20.2652 13.0004 20V17H11.0004V20C11.0004 20.2652 10.8951 20.5196 10.7075 20.7071C10.52 20.8947 10.2656 21 10.0004 21H7.00041C6.46997 21 5.96127 20.7893 5.58619 20.4142C5.21112 20.0392 5.00041 19.5305 5.00041 19V12.414L4.70741 12.707C4.5188 12.8892 4.2662 12.99 4.00401 12.9877C3.74181 12.9854 3.491 12.8803 3.30559 12.6948C3.12018 12.5094 3.01501 12.2586 3.01273 11.9964C3.01045 11.7342 3.11125 11.4816 3.29341 11.293L5.29341 9.29303L11.2934 3.29303Z" fill="currentColor"/>
</svg>
