<svg version="1.1" xmlns="http://www.w3.org/2000/svg" viewBox="0 0 32 32">
<path d="M5.973 20.127c-0.844 2.004-1.953 3.725-3.309 5.219l0.013-0.015c-0.248 0.277-0.399 0.645-0.399 1.047 0 0.316 0.093 0.611 0.254 0.857l-0.004-0.006c0.277 0.439 0.76 0.726 1.31 0.726 0.004 0 0.009-0 0.013-0h-0.001c0.013 0 0.028 0.001 0.043 0.001 0.145 0 0.284-0.024 0.414-0.068l-0.009 0.003c3.136-0.917 10.465-4.17 10.667-14.602 0.074-4.021-2.87-7.477-6.699-7.872-0.228-0.024-0.492-0.038-0.759-0.038-1.941 0-3.711 0.731-5.051 1.933l0.007-0.006c-1.515 1.378-2.463 3.357-2.464 5.557v0c0 0.003 0 0.006 0 0.009 0 3.581 2.546 6.567 5.926 7.248l0.047 0.008zM25.29 5.418c-0.234-0.026-0.505-0.041-0.779-0.041-4.129 0-7.476 3.347-7.476 7.476 0 0.004 0 0.007 0 0.011v-0.001c0 0.002 0 0.005 0 0.008 0 3.581 2.546 6.568 5.926 7.248l0.047 0.008c-0.844 2.004-1.953 3.725-3.309 5.219l0.013-0.015c-0.248 0.277-0.399 0.644-0.399 1.047 0 0.316 0.093 0.61 0.254 0.857l-0.004-0.006c0.277 0.439 0.76 0.726 1.31 0.726 0.005 0 0.009-0 0.013-0h-0.001c0.012 0 0.027 0.001 0.042 0.001 0.145 0 0.285-0.024 0.415-0.067l-0.009 0.003c3.136-0.917 10.464-4.171 10.667-14.603v-0.149c-0-3.956-2.912-7.327-6.71-7.722z" fill="currentColor" />
</svg>
