<svg version="1.1" xmlns="http://www.w3.org/2000/svg" viewBox="0 0 32 32">
<path d="M26.028 13.206c0.844-2.004 1.953-3.725 3.309-5.219l-0.013 0.015c0.248-0.277 0.399-0.644 0.399-1.048 0-0.316-0.093-0.611-0.254-0.857l0.004 0.006c-0.277-0.439-0.76-0.727-1.31-0.727-0.004 0-0.009 0-0.013 0h0.001c-0.013-0-0.028-0.001-0.043-0.001-0.145 0-0.284 0.024-0.414 0.068l0.009-0.003c-3.136 0.917-10.464 4.172-10.668 14.602-0.073 4.022 2.871 7.477 6.701 7.872 0.236 0.026 0.51 0.042 0.787 0.042 4.13 0 7.478-3.348 7.478-7.478 0-0.003 0-0.006 0-0.009v0c0-0.003 0-0.005 0-0.008 0-3.581-2.545-6.567-5.925-7.248l-0.047-0.008zM6.709 27.916c0.234 0.026 0.505 0.041 0.78 0.041 4.129 0 7.476-3.347 7.476-7.476 0-0.004 0-0.007 0-0.011v0.001c0-0.002 0-0.005 0-0.008 0-3.581-2.546-6.568-5.926-7.248l-0.047-0.008c0.844-2.005 1.954-3.728 3.311-5.223l-0.013 0.015c0.248-0.277 0.399-0.644 0.399-1.047 0-0.316-0.093-0.611-0.254-0.857l0.004 0.006c-0.278-0.438-0.76-0.724-1.308-0.724-0.005 0-0.011 0-0.016 0h0.001c-0.012-0-0.027-0.001-0.042-0.001-0.145 0-0.285 0.024-0.415 0.067l0.009-0.003c-3.138 0.917-10.464 4.172-10.667 14.603v0.149c0 3.958 2.912 7.329 6.709 7.723z" fill="currentColor" />
</svg>
